<svg width="24" height="24" viewBox="0 0 24 24" fill="none" xmlns="http://www.w3.org/2000/svg">
<circle cx="12" cy="12" r="12" fill="#252B34"/>
<path d="M12.1954 7.52866C12.3204 7.40368 12.49 7.33347 12.6667 7.33347C12.8435 7.33347 13.0131 7.40368 13.1381 7.52866L17.1381 11.5287C17.2631 11.6537 17.3333 11.8232 17.3333 12C17.3333 12.1768 17.2631 12.3463 17.1381 12.4713L13.1381 16.4713C13.0123 16.5928 12.8439 16.66 12.6691 16.6584C12.4943 16.6569 12.3271 16.5868 12.2035 16.4632C12.0799 16.3396 12.0098 16.1724 12.0083 15.9976C12.0068 15.8228 12.074 15.6544 12.1954 15.5287L15.0574 12.6667H7.33341C7.1566 12.6667 6.98703 12.5964 6.86201 12.4714C6.73699 12.3464 6.66675 12.1768 6.66675 12C6.66675 11.8232 6.73699 11.6536 6.86201 11.5286C6.98703 11.4036 7.1566 11.3333 7.33341 11.3333H15.0574L12.1954 8.47132C12.0704 8.3463 12.0002 8.17677 12.0002 7.99999C12.0002 7.82321 12.0704 7.65368 12.1954 7.52866Z" fill="white"/>
</svg>
