<svg width="24" height="24" viewBox="0 0 24 24" fill="none" xmlns="http://www.w3.org/2000/svg">
<circle cx="12" cy="12" r="12" fill="#5D86EF"/>
<path d="M12.1953 7.52869C12.3204 7.40371 12.4899 7.3335 12.6667 7.3335C12.8434 7.3335 13.013 7.40371 13.138 7.52869L17.138 11.5287C17.263 11.6537 17.3332 11.8232 17.3332 12C17.3332 12.1768 17.263 12.3463 17.138 12.4714L13.138 16.4714C13.0123 16.5928 12.8439 16.66 12.6691 16.6585C12.4943 16.657 12.3271 16.5868 12.2035 16.4632C12.0798 16.3396 12.0097 16.1724 12.0082 15.9976C12.0067 15.8228 12.0739 15.6544 12.1953 15.5287L15.0573 12.6667H7.33333C7.15652 12.6667 6.98695 12.5964 6.86193 12.4714C6.7369 12.3464 6.66667 12.1768 6.66667 12C6.66667 11.8232 6.7369 11.6536 6.86193 11.5286C6.98695 11.4036 7.15652 11.3334 7.33333 11.3334H15.0573L12.1953 8.47135C12.0704 8.34634 12.0001 8.1768 12.0001 8.00002C12.0001 7.82324 12.0704 7.65371 12.1953 7.52869Z" fill="white"/>
</svg>
