<svg width="20" height="20" viewBox="0 0 20 20" fill="none" xmlns="http://www.w3.org/2000/svg">
<g id="fluent:news-28-filled" opacity="0.4">
<path id="Vector" d="M15.7143 4.10715V14.6429C15.7141 14.7321 15.7474 14.8182 15.8075 14.8841C15.8677 14.9501 15.9503 14.9911 16.0392 14.9992C16.1281 15.0073 16.2167 14.9818 16.2878 14.9277C16.3588 14.8737 16.407 14.795 16.4229 14.7071L16.4286 14.6429V5H17.3214C17.6352 5.00002 17.9374 5.11798 18.1682 5.33049C18.3989 5.543 18.5413 5.8345 18.5672 6.14715L18.5714 6.25V14.8214C18.5715 15.4144 18.3446 15.9849 17.9374 16.4159C17.5302 16.8469 16.9734 17.1057 16.3814 17.1393L16.25 17.1429H3.75002C3.15706 17.1429 2.58657 16.916 2.15557 16.5088C1.72457 16.1016 1.46573 15.5449 1.43216 14.9529L1.42859 14.8214V4.10715C1.4286 3.79344 1.54657 3.49121 1.75907 3.26044C1.97158 3.02967 2.26309 2.88725 2.57573 2.86143L2.67859 2.85715H14.4643C14.778 2.85716 15.0802 2.97513 15.311 3.18763C15.5418 3.40014 15.6842 3.69165 15.71 4.00429L15.7143 4.10715ZM6.96216 9.28858H5.17859C4.86488 9.28859 4.56265 9.40656 4.33188 9.61906C4.10111 9.83157 3.95869 10.1231 3.93287 10.4357L3.92859 10.5386V12.3214C3.9286 12.6351 4.04657 12.9374 4.25907 13.1681C4.47158 13.3989 4.76309 13.5413 5.07573 13.5671L5.17859 13.5714H6.96216C7.27598 13.5714 7.57831 13.4533 7.80909 13.2407C8.03988 13.028 8.18223 12.7363 8.20787 12.4236L8.21145 12.3214V10.5386C8.21161 10.2247 8.09373 9.92233 7.8812 9.69142C7.66868 9.4605 7.37707 9.31797 7.0643 9.29215L6.96216 9.28858ZM12.6786 12.5H10.1786L10.1057 12.505C9.97751 12.5226 9.86001 12.5861 9.77495 12.6837C9.6899 12.7812 9.64304 12.9063 9.64304 13.0357C9.64304 13.1651 9.6899 13.2902 9.77495 13.3878C9.86001 13.4853 9.97751 13.5488 10.1057 13.5664L10.1786 13.5714H12.6786L12.7514 13.5664C12.8797 13.5488 12.9972 13.4853 13.0822 13.3878C13.1673 13.2902 13.2141 13.1651 13.2141 13.0357C13.2141 12.9063 13.1673 12.7812 13.0822 12.6837C12.9972 12.5861 12.8797 12.5226 12.7514 12.505L12.6786 12.5ZM5.17859 10.36H6.96216C7.00229 10.36 7.04125 10.3736 7.07274 10.3985C7.10423 10.4233 7.12642 10.4581 7.13573 10.4971L7.14073 10.5386V12.3214C7.14066 12.3617 7.12701 12.4007 7.10199 12.4322C7.07697 12.4637 7.04205 12.4858 7.00287 12.495L6.96216 12.5H5.17859C5.13836 12.4999 5.09933 12.4863 5.06782 12.4613C5.03632 12.4362 5.01419 12.4013 5.00502 12.3621L5.00002 12.3214V10.5386C4.99992 10.4982 5.0135 10.459 5.03853 10.4274C5.06357 10.3957 5.09858 10.3735 5.13787 10.3643L5.17859 10.36ZM12.6786 9.28858H10.1786L10.1057 9.29286C9.97697 9.30993 9.85879 9.37319 9.77319 9.47088C9.68759 9.56858 9.64039 9.69404 9.64039 9.82393C9.64039 9.95382 9.68759 10.0793 9.77319 10.177C9.85879 10.2747 9.97697 10.3379 10.1057 10.355L10.1786 10.36H12.6786L12.7514 10.355C12.8802 10.3379 12.9984 10.2747 13.084 10.177C13.1696 10.0793 13.2168 9.95382 13.2168 9.82393C13.2168 9.69404 13.1696 9.56858 13.084 9.47088C12.9984 9.37319 12.8802 9.30993 12.7514 9.29286L12.6786 9.28858ZM12.6786 6.06929H4.4643L4.39145 6.07429C4.26322 6.09193 4.14572 6.1554 4.06067 6.25296C3.97561 6.35052 3.92875 6.47557 3.92875 6.605C3.92875 6.73444 3.97561 6.85949 4.06067 6.95705C4.14572 7.05461 4.26322 7.11808 4.39145 7.13572L4.4643 7.14072H12.6786L12.7514 7.13572C12.8797 7.11808 12.9972 7.05461 13.0822 6.95705C13.1673 6.85949 13.2141 6.73444 13.2141 6.605C13.2141 6.47557 13.1673 6.35052 13.0822 6.25296C12.9972 6.1554 12.8797 6.09193 12.7514 6.07429L12.6786 6.06929Z" fill="#51555D"/>
</g>
</svg>
