<svg width="125" height="70" viewBox="0 0 125 70" fill="none" xmlns="http://www.w3.org/2000/svg">
<path d="M20 29.3498C20.2085 26.465 21.1296 23.9625 22.7631 21.8424C24.4314 19.7222 26.6385 18.0887 29.3842 16.9417C32.13 15.76 35.2581 15.1691 38.7685 15.1691C42.1051 15.1691 45.0246 15.6905 47.5271 16.7332C50.0643 17.7759 52.028 19.2356 53.4183 21.1125C54.8433 22.9893 55.5558 25.1616 55.5558 27.6293C55.5558 29.5409 55.0866 31.3135 54.1482 32.947C53.2445 34.5806 51.7326 36.2489 49.6125 37.952C47.5271 39.6203 44.6944 41.5145 41.1145 43.6346L28.133 51.2984L27.2467 49.2652H56.7549V55H20.3649V49.9951L36.9959 39.881C39.9154 38.1084 42.2094 36.5791 43.8777 35.2931C45.5807 33.9724 46.7972 32.7385 47.5271 31.5915C48.257 30.4446 48.6219 29.2281 48.6219 27.9421C48.6219 26.5866 48.257 25.3701 47.5271 24.2927C46.7972 23.2152 45.685 22.3637 44.1905 21.7381C42.7307 21.1125 40.8539 20.7997 38.5599 20.7997C35.9532 20.7997 33.8157 21.182 32.1474 21.9466C30.4791 22.7113 29.2278 23.754 28.3937 25.0747C27.5943 26.3607 27.1077 27.7857 26.9339 29.3498H20Z" fill="#252B34"/>
<path d="M59.5965 15H103.911L100.001 20.7348H59.5965V15Z" fill="#547BDE"/>
<path d="M55.608 49.2685H96.0123L99.9224 55H55.608V49.2685Z" fill="#252B34"/>
<path d="M59.5965 32.1431H92.1807V37.8779H59.5965V32.1431Z" fill="#547BDE"/>
</svg>
