<svg width="95" height="70" viewBox="0 0 95 70" fill="none" xmlns="http://www.w3.org/2000/svg">
<path d="M5 29.3498C5.21125 26.465 6.14424 23.9625 7.799 21.8424C9.48896 19.7222 11.7246 18.0887 14.506 16.9417C17.2874 15.76 20.4561 15.1691 24.0121 15.1691C27.392 15.1691 30.3494 15.6905 32.8844 16.7332C35.4545 17.7759 37.4437 19.2356 38.852 21.1125C40.2955 22.9893 41.0173 25.1616 41.0173 27.6293C41.0173 29.5409 40.542 31.3135 39.5914 32.947C38.676 34.5806 37.1445 36.2489 34.9968 37.952C32.8844 39.6203 30.0149 41.5145 26.3886 43.6346L13.2386 51.2984L12.3408 49.2652H42.232V55H5.36968V49.9951L22.2165 39.881C25.1739 38.1084 27.4976 36.5791 29.1876 35.2931C30.9127 33.9724 32.145 32.7385 32.8844 31.5915C33.6237 30.4446 33.9934 29.2281 33.9934 27.9421C33.9934 26.5866 33.6237 25.3701 32.8844 24.2927C32.145 23.2152 31.0184 22.3637 29.5044 21.7381C28.0257 21.1125 26.1245 20.7997 23.8008 20.7997C21.1603 20.7997 18.995 21.182 17.305 21.9466C15.6151 22.7113 14.3476 23.754 13.5026 25.0747C12.6928 26.3607 12.1999 27.7857 12.0239 29.3498H5Z" fill="#252B34"/>
<path d="M45.1104 15H90L86.0392 20.7348H45.1104V15Z" fill="#547BDE"/>
<path d="M41.0701 49.2685H81.9989L85.9597 55H41.0701V49.2685Z" fill="#252B34"/>
<path d="M45.1104 32.1431H78.1175V37.8779H45.1104V32.1431Z" fill="#547BDE"/>
</svg>
