<svg width="24" height="24" viewBox="0 0 24 24" fill="none" xmlns="http://www.w3.org/2000/svg">
<circle cx="12" cy="12" r="11.25" stroke="#252B34" stroke-width="1.5"/>
<path d="M12.1957 7.52867C12.3207 7.40369 12.4902 7.33348 12.667 7.33348C12.8438 7.33348 13.0133 7.40369 13.1383 7.52867L17.1383 11.5287C17.2633 11.6537 17.3335 11.8232 17.3335 12C17.3335 12.1768 17.2633 12.3463 17.1383 12.4713L13.1383 16.4713C13.0126 16.5928 12.8442 16.66 12.6694 16.6584C12.4946 16.6569 12.3274 16.5868 12.2038 16.4632C12.0802 16.3396 12.0101 16.1724 12.0085 15.9976C12.007 15.8228 12.0742 15.6544 12.1957 15.5287L15.0577 12.6667H7.33366C7.15685 12.6667 6.98728 12.5964 6.86225 12.4714C6.73723 12.3464 6.66699 12.1768 6.66699 12C6.66699 11.8232 6.73723 11.6536 6.86225 11.5286C6.98728 11.4036 7.15685 11.3333 7.33366 11.3333H15.0577L12.1957 8.47133C12.0707 8.34632 12.0005 8.17678 12.0005 8C12.0005 7.82322 12.0707 7.65369 12.1957 7.52867Z" fill="#252B34"/>
</svg>
