<svg width="21" height="20" viewBox="0 0 21 20" fill="none" xmlns="http://www.w3.org/2000/svg">
<g clip-path="url(#clip0_125_1216)">
<path fill-rule="evenodd" clip-rule="evenodd" d="M9.24997 1.66666C8.12046 1.66676 7.00735 1.93697 6.00351 2.45474C4.99967 2.97252 4.13421 3.72285 3.47933 4.64313C2.82445 5.56341 2.39914 6.62695 2.23889 7.74503C2.07864 8.86311 2.18809 10.0033 2.55812 11.0705C2.92814 12.1377 3.54801 13.1009 4.366 13.8798C5.18399 14.6587 6.17639 15.2306 7.2604 15.548C8.3444 15.8654 9.48859 15.9189 10.5975 15.7041C11.7064 15.4893 12.7478 15.0125 13.635 14.3133L16.6783 17.3567C16.8355 17.5085 17.046 17.5925 17.2645 17.5906C17.483 17.5887 17.692 17.501 17.8465 17.3465C18.001 17.192 18.0886 16.983 18.0905 16.7645C18.0924 16.546 18.0084 16.3355 17.8566 16.1783L14.8133 13.135C15.6366 12.0905 16.1493 10.8353 16.2925 9.5131C16.4358 8.19087 16.204 6.85501 15.6235 5.65841C15.043 4.4618 14.1374 3.45279 13.0102 2.74686C11.8831 2.04092 10.5799 1.66657 9.24997 1.66666ZM3.8333 8.75C3.8333 7.31341 4.40398 5.93566 5.41981 4.91984C6.43563 3.90401 7.81338 3.33333 9.24997 3.33333C10.6866 3.33333 12.0643 3.90401 13.0801 4.91984C14.096 5.93566 14.6666 7.31341 14.6666 8.75C14.6666 10.1866 14.096 11.5643 13.0801 12.5802C12.0643 13.596 10.6866 14.1667 9.24997 14.1667C7.81338 14.1667 6.43563 13.596 5.41981 12.5802C4.40398 11.5643 3.8333 10.1866 3.8333 8.75Z" fill="#5D86EF"/>
</g>
<defs>
<clipPath id="clip0_125_1216">
<rect width="20" height="20" fill="white" transform="translate(0.5)"/>
</clipPath>
</defs>
</svg>
