<svg width="20" height="20" viewBox="0 0 20 20" fill="none" xmlns="http://www.w3.org/2000/svg">
<g id="Component 2">
<path id="Vector" d="M10.9333 14.1858L7.43418 12.2775C6.97734 12.7659 6.38416 13.1056 5.73174 13.2524C5.07931 13.3993 4.3978 13.3465 3.77578 13.1009C3.15375 12.8553 2.61998 12.4283 2.24382 11.8754C1.86765 11.3225 1.6665 10.6692 1.6665 10.0004C1.6665 9.33168 1.86765 8.6784 2.24382 8.12547C2.61998 7.57255 3.15375 7.14555 3.77578 6.89998C4.3978 6.6544 5.07931 6.6016 5.73174 6.74844C6.38416 6.89527 6.97734 7.23496 7.43418 7.72334L10.9342 5.81501C10.7358 5.02831 10.8311 4.19626 11.2023 3.47482C11.5735 2.75337 12.195 2.19208 12.9505 1.89615C13.7059 1.60022 14.5433 1.58997 15.3058 1.86732C16.0682 2.14468 16.7034 2.69059 17.0921 3.40273C17.4808 4.11487 17.5965 4.94434 17.4174 5.73566C17.2383 6.52698 16.7767 7.22581 16.1192 7.70115C15.4617 8.1765 14.6534 8.39572 13.8459 8.31773C13.0383 8.23974 12.2869 7.86989 11.7325 7.27751L8.23251 9.18584C8.36684 9.72031 8.36684 10.2797 8.23251 10.8142L11.7325 12.7225C12.2872 12.1304 13.0387 11.7609 13.8463 11.6833C14.6539 11.6058 15.4621 11.8254 16.1194 12.301C16.7766 12.7766 17.2379 13.4757 17.4166 14.2671C17.5953 15.0584 17.4793 15.8878 17.0903 16.5998C16.7012 17.3117 16.0659 17.8574 15.3033 18.1344C14.5408 18.4114 13.7034 18.4008 12.9481 18.1046C12.1928 17.8084 11.5714 17.2468 11.2005 16.5253C10.8296 15.8037 10.7346 14.9716 10.9333 14.185V14.1858ZM5.00001 11.6667C5.44204 11.6667 5.86596 11.4911 6.17852 11.1785C6.49108 10.866 6.66668 10.442 6.66668 10C6.66668 9.55798 6.49108 9.13406 6.17852 8.8215C5.86596 8.50894 5.44204 8.33334 5.00001 8.33334C4.55798 8.33334 4.13406 8.50894 3.8215 8.8215C3.50894 9.13406 3.33334 9.55798 3.33334 10C3.33334 10.442 3.50894 10.866 3.8215 11.1785C4.13406 11.4911 4.55798 11.6667 5.00001 11.6667ZM14.1667 6.66668C14.6087 6.66668 15.0326 6.49108 15.3452 6.17852C15.6577 5.86596 15.8333 5.44204 15.8333 5.00001C15.8333 4.55798 15.6577 4.13406 15.3452 3.8215C15.0326 3.50894 14.6087 3.33334 14.1667 3.33334C13.7246 3.33334 13.3007 3.50894 12.9882 3.8215C12.6756 4.13406 12.5 4.55798 12.5 5.00001C12.5 5.44204 12.6756 5.86596 12.9882 6.17852C13.3007 6.49108 13.7246 6.66668 14.1667 6.66668ZM14.1667 16.6667C14.6087 16.6667 15.0326 16.4911 15.3452 16.1785C15.6577 15.866 15.8333 15.442 15.8333 15C15.8333 14.558 15.6577 14.1341 15.3452 13.8215C15.0326 13.5089 14.6087 13.3333 14.1667 13.3333C13.7246 13.3333 13.3007 13.5089 12.9882 13.8215C12.6756 14.1341 12.5 14.558 12.5 15C12.5 15.442 12.6756 15.866 12.9882 16.1785C13.3007 16.4911 13.7246 16.6667 14.1667 16.6667Z" fill="#5D86EF"/>
</g>
</svg>
