<svg width="20" height="20" viewBox="0 0 20 20" fill="none" xmlns="http://www.w3.org/2000/svg">
<path d="M16.3221 4.56239H13.4173V4.06143C13.4173 3.55675 13.2168 3.07275 12.86 2.71589C12.5031 2.35903 12.0191 2.15854 11.5144 2.15854H7.90865C7.40398 2.15854 6.91997 2.35903 6.56311 2.71589C6.20625 3.07275 6.00577 3.55675 6.00577 4.06143V4.56239H3.10096C2.91505 4.56239 2.73676 4.63624 2.60531 4.7677C2.47385 4.89915 2.4 5.07745 2.4 5.26335C2.4 5.44926 2.47385 5.62755 2.60531 5.75901C2.73676 5.89046 2.91505 5.96431 3.10096 5.96431H3.60192V16.6816C3.60192 17.0269 3.73909 17.3581 3.98325 17.6022C4.22741 17.8464 4.55855 17.9835 4.90385 17.9835H14.5192C14.8645 17.9835 15.1957 17.8464 15.4398 17.6022C15.684 17.3581 15.8212 17.0269 15.8212 16.6816V5.96431H16.3221C16.508 5.96431 16.6863 5.89046 16.8178 5.75901C16.9492 5.62755 17.0231 5.44926 17.0231 5.26335C17.0231 5.07745 16.9492 4.89915 16.8178 4.7677C16.6863 4.63624 16.508 4.56239 16.3221 4.56239ZM7.40769 4.06143C7.40769 3.92857 7.46047 3.80114 7.55442 3.7072C7.64837 3.61325 7.77579 3.56047 7.90865 3.56047H11.5144C11.6473 3.56047 11.7747 3.61325 11.8687 3.7072C11.9626 3.80114 12.0154 3.92857 12.0154 4.06143V4.56239H7.40769V4.06143ZM14.4192 16.5816H5.00385V5.96431H14.4192V16.5816ZM8.60961 13.6768V8.86912C8.60961 8.68322 8.53576 8.50492 8.40431 8.37347C8.27285 8.24201 8.09456 8.16816 7.90865 8.16816C7.72275 8.16816 7.54445 8.24201 7.413 8.37347C7.28154 8.50492 7.20769 8.68322 7.20769 8.86912V13.6768C7.20769 13.8627 7.28154 14.041 7.413 14.1725C7.54446 14.3039 7.72275 14.3778 7.90865 14.3778C8.09456 14.3778 8.27285 14.3039 8.40431 14.1725C8.53576 14.041 8.60961 13.8627 8.60961 13.6768ZM12.2154 13.6768V8.86912C12.2154 8.68322 12.1415 8.50492 12.0101 8.37347C11.8786 8.24201 11.7003 8.16816 11.5144 8.16816C11.3285 8.16816 11.1502 8.24201 11.0188 8.37347C10.8873 8.50492 10.8135 8.68322 10.8135 8.86912V13.6768C10.8135 13.8627 10.8873 14.041 11.0188 14.1725C11.1502 14.3039 11.3285 14.3778 11.5144 14.3778C11.7003 14.3778 11.8786 14.3039 12.0101 14.1725C12.1415 14.041 12.2154 13.8627 12.2154 13.6768Z" fill="#5D86EF" stroke="#5D86EF" stroke-width="0.2"/>
</svg>
